<?xml version="1.0" encoding="iso-8859-1"?>
<!-- Uploaded to: SVG Repo, www.svgrepo.com, Generator: SVG Repo Mixer Tools -->
<svg fill="#000000" height="800px" width="800px" version="1.1" id="Layer_1" xmlns="http://www.w3.org/2000/svg" xmlns:xlink="http://www.w3.org/1999/xlink"
     viewBox="0 0 490.07 490.07" xml:space="preserve">
<g>
    <path d="M479.993,9.893c-13.3-13.3-42.6-23.6-135.3,42.1c-30.3-15.7-64.1-24-99.2-24c-147,0-216.5,125.7-216.5,216.9
        c0,35.5,8.5,69.6,24.4,100.2c-67,93.2-57.7,122.5-42.4,135.8c31.5,27.5,95.3-13,136.3-42.6c30.1,15.4,63.5,23.5,98.2,23.5
        c143.7,0,216.5-120.7,216.5-216.9c0-34.9-8.2-68.6-23.6-98.8C441.993,140.993,516.593,46.593,479.993,9.893z M449.793,41.293
        c-1.8,11.5-13.1,35-35.4,67.9c-4.9-6.1-23-26-32.6-32.9C418.993,51.193,439.893,43.093,449.793,41.293z M245.493,69.093
        c59.4,0,112,29.7,143.7,75c-57.2,85-191.6,206-243.8,245.1c-45.5-31.8-75.4-84.6-75.4-144.3
        C69.993,147.993,148.693,69.093,245.493,69.093z M41.193,450.593c1.8-10,10.7-31.7,36-69.2c6.4,9.6,27,28.1,33.3,33.1
        C76.793,437.393,52.893,448.793,41.193,450.593z M420.993,244.893c0,96.9-78.7,175.8-175.5,175.8c-21.4,0-42-3.9-61-11
        c82.1-62.6,194.7-183.3,225.5-226C417.093,202.793,420.993,223.393,420.993,244.893z"/>
</g>
</svg>
